<svg width="103" height="103" viewBox="0 0 103 103" fill="none" xmlns="http://www.w3.org/2000/svg">
<g clip-path="url(#clip0_45_188)">
<path d="M103 51.5C103 23.0575 79.9425 0 51.5 0C23.0575 0 0 23.0571 0 51.5C0 77.2049 18.8329 98.511 43.4531 102.374V66.3867H30.377V51.5H43.4531V40.1539C43.4531 27.2467 51.1419 20.1172 62.9052 20.1172C68.5401 20.1172 74.4336 21.123 74.4336 21.123V33.7969H67.9398C61.5417 33.7969 59.5469 37.7668 59.5469 41.8397V51.5H73.8301L71.5468 66.3867H59.5469V102.374C84.1671 98.511 103 77.2053 103 51.5Z" fill="#1877F2"/>
<path d="M71.5478 66.3867L73.8311 51.5H59.5479V41.8397C59.5479 37.7664 61.5431 33.7969 67.9407 33.7969H74.4346V21.123C74.4346 21.123 68.541 20.1172 62.9062 20.1172C51.1429 20.1172 43.4541 27.2467 43.4541 40.1539V51.5H30.3779V66.3867H43.4541V102.374C46.1161 102.792 48.8065 103.001 51.501 103C54.1954 103.001 56.8859 102.792 59.5479 102.374V66.3867H71.5478Z" fill="white"/>
</g>
<defs>
<clipPath id="clip0_45_188">
<rect width="103" height="103" fill="white"/>
</clipPath>
</defs>
</svg>
