<svg width="103" height="103" viewBox="0 0 103 103" fill="none" xmlns="http://www.w3.org/2000/svg">
<g clip-path="url(#clip0_45_210)">
<path d="M51.5 0C37.8445 0 24.7361 5.42923 15.0879 15.0839C5.42973 24.7423 0.00267534 37.8411 0 51.5C0 65.1531 5.43164 78.2615 15.0879 87.9161C24.7361 97.5708 37.8445 103 51.5 103C65.1555 103 78.2639 97.5708 87.9121 87.9161C97.5684 78.2615 103 65.1531 103 51.5C103 37.8469 97.5684 24.7385 87.9121 15.0839C78.2639 5.42923 65.1555 0 51.5 0Z" fill="url(#paint0_linear_45_210)"/>
<path d="M23.3119 50.956C38.3273 44.4155 48.3377 40.1032 53.3428 38.0199C67.6502 32.0708 70.6194 31.0376 72.5587 31.0026C72.9852 30.9958 73.9348 31.1012 74.5544 31.6021C75.0694 32.0245 75.2142 32.5959 75.2866 32.997C75.351 33.3977 75.4395 34.3111 75.3671 35.024C74.5946 43.1675 71.2391 62.929 69.5331 72.0501C68.817 75.9094 67.3927 77.2033 66.0166 77.3297C63.0232 77.6049 60.754 75.3533 57.8571 73.4551C53.3267 70.4834 50.7678 68.6342 46.3662 65.7349C41.2805 62.3842 44.5798 60.5423 47.4766 57.5327C48.233 56.745 61.4138 44.7591 61.6633 43.672C61.6955 43.536 61.7277 43.029 61.4219 42.7619C61.1241 42.4939 60.6816 42.5857 60.3597 42.6581C59.901 42.7611 52.6669 47.5474 38.6331 57.0161C36.5812 58.4276 34.7223 59.1156 33.0486 59.0793C31.2139 59.0399 27.6733 58.0397 25.0419 57.1851C21.8232 56.1366 19.2562 55.5822 19.4816 53.8014C19.5942 52.8744 20.8737 51.9257 23.3119 50.956Z" fill="white"/>
</g>
<defs>
<linearGradient id="paint0_linear_45_210" x1="5150" y1="0" x2="5150" y2="10300" gradientUnits="userSpaceOnUse">
<stop stop-color="#2AABEE"/>
<stop offset="1" stop-color="#229ED9"/>
</linearGradient>
<clipPath id="clip0_45_210">
<rect width="103" height="103" fill="white"/>
</clipPath>
</defs>
</svg>
