<svg width="103" height="103" viewBox="0 0 103 103" fill="none" xmlns="http://www.w3.org/2000/svg">
<g clip-path="url(#clip0_45_196)">
<path d="M78.8594 0H24.1406C10.8081 0 0 10.8081 0 24.1406V78.8594C0 92.1919 10.8081 103 24.1406 103H78.8594C92.1919 103 103 92.1919 103 78.8594V24.1406C103 10.8081 92.1919 0 78.8594 0Z" fill="white"/>
<path d="M78.8594 0H24.1406C10.8081 0 0 10.8081 0 24.1406V78.8594C0 92.1919 10.8081 103 24.1406 103H78.8594C92.1919 103 103 92.1919 103 78.8594V24.1406C103 10.8081 92.1919 0 78.8594 0Z" fill="#1D9BF0"/>
<path d="M80.2965 36.7786C80.3408 37.4171 80.3408 38.0557 80.3408 38.7002C80.3408 58.3334 65.3945 80.9765 38.0645 80.9765V80.9644C29.9908 80.9761 22.0843 78.6638 15.2891 74.3036C16.4631 74.4448 17.6428 74.5153 18.8257 74.5181C25.5173 74.5233 32.0164 72.2789 37.2788 68.1453C34.1783 68.0867 31.1736 67.0607 28.6849 65.2107C26.1961 63.3607 24.3476 60.7793 23.3979 57.8272C25.624 58.2565 27.9189 58.1689 30.1058 57.5713C23.1742 56.1708 18.1871 50.0805 18.1871 43.0073V42.819C20.2535 43.97 22.5662 44.6077 24.9304 44.6786C18.402 40.3152 16.3895 31.6298 20.3316 24.8391C24.0619 29.4294 28.716 33.1837 33.9918 35.8581C39.2676 38.5324 45.0469 40.0671 50.9544 40.3623C50.3654 37.8269 50.4524 35.1813 51.2067 32.69C51.961 30.1988 53.3562 27.9493 55.2527 26.1664C61.2371 20.5408 70.6492 20.8293 76.2747 26.8106C79.6021 26.1536 82.793 24.9338 85.7101 23.2035C84.6008 26.6438 82.2797 29.5641 79.1784 31.421C82.1239 31.074 85.0003 30.2856 87.7109 29.0822C85.7169 32.0684 83.2061 34.6744 80.2965 36.7786Z" fill="white"/>
</g>
<defs>
<clipPath id="clip0_45_196">
<rect width="103" height="103" fill="white"/>
</clipPath>
</defs>
</svg>
