<svg width="103" height="103" viewBox="0 0 103 103" fill="none" xmlns="http://www.w3.org/2000/svg">
<g clip-path="url(#clip0_45_204)">
<path d="M100.847 26.5484C100.265 24.3568 99.1177 22.3566 97.5194 20.7481C95.9212 19.1395 93.9283 17.9792 91.7405 17.3832C83.7083 15.2163 51.5 15.2163 51.5 15.2163C51.5 15.2163 19.2917 15.2163 11.2595 17.3832C9.07169 17.9792 7.07883 19.1395 5.48056 20.7481C3.88229 22.3566 2.73471 24.3568 2.15277 26.5484C1.05522e-06 34.6319 0 51.5 0 51.5C0 51.5 1.05522e-06 68.3681 2.15277 76.4533C2.73471 78.6449 3.88229 80.6452 5.48056 82.2537C7.07883 83.8622 9.07169 85.0226 11.2595 85.6185C19.2917 87.7837 51.5 87.7837 51.5 87.7837C51.5 87.7837 83.7083 87.7837 91.7405 85.6185C93.9283 85.0226 95.9212 83.8622 97.5194 82.2537C99.1177 80.6452 100.265 78.6449 100.847 76.4533C103 68.3681 103 51.5 103 51.5C103 51.5 103 34.6319 100.847 26.5484Z" fill="#EA5A47"/>
<path d="M40.9648 66.8137L67.8851 51.5L40.9648 36.1863V66.8137Z" fill="white"/>
<path d="M100.847 26.5484C100.265 24.3568 99.1177 22.3566 97.5194 20.7481C95.9212 19.1395 93.9283 17.9792 91.7405 17.3832C83.7083 15.2163 51.5 15.2163 51.5 15.2163C51.5 15.2163 19.2917 15.2163 11.2595 17.3832C9.07169 17.9792 7.07883 19.1395 5.48056 20.7481C3.88229 22.3566 2.73471 24.3568 2.15277 26.5484C1.05522e-06 34.6319 0 51.5 0 51.5C0 51.5 1.05522e-06 68.3681 2.15277 76.4533C2.73471 78.6449 3.88229 80.6452 5.48056 82.2537C7.07883 83.8622 9.07169 85.0226 11.2595 85.6185C19.2917 87.7837 51.5 87.7837 51.5 87.7837C51.5 87.7837 83.7083 87.7837 91.7405 85.6185C93.9283 85.0226 95.9212 83.8622 97.5194 82.2537C99.1177 80.6452 100.265 78.6449 100.847 76.4533C103 68.3681 103 51.5 103 51.5C103 51.5 103 34.6319 100.847 26.5484Z" stroke="black" stroke-width="2" stroke-miterlimit="10"/>
<path d="M40.9663 66.8137L67.8865 51.5L40.9663 36.1863V66.8137Z" stroke="black" stroke-width="2" stroke-miterlimit="10" stroke-linecap="round" stroke-linejoin="round"/>
</g>
<defs>
<clipPath id="clip0_45_204">
<rect width="103" height="103" fill="white"/>
</clipPath>
</defs>
</svg>
