<svg width="103" height="103" viewBox="0 0 103 103" fill="none" xmlns="http://www.w3.org/2000/svg">
<g clip-path="url(#clip0_45_191)">
<path d="M78.8594 0H24.1406C10.8081 0 0 10.8081 0 24.1406V78.8594C0 92.1919 10.8081 103 24.1406 103H78.8594C92.1919 103 103 92.1919 103 78.8594V24.1406C103 10.8081 92.1919 0 78.8594 0Z" fill="url(#paint0_radial_45_191)"/>
<path d="M78.8594 0H24.1406C10.8081 0 0 10.8081 0 24.1406V78.8594C0 92.1919 10.8081 103 24.1406 103H78.8594C92.1919 103 103 92.1919 103 78.8594V24.1406C103 10.8081 92.1919 0 78.8594 0Z" fill="url(#paint1_radial_45_191)"/>
<path d="M51.5036 11.2656C40.5768 11.2656 39.2052 11.3135 34.9138 11.5086C30.6304 11.705 27.7066 12.3829 25.1485 13.3779C22.5019 14.4055 20.2572 15.7803 18.021 18.0174C15.7827 20.254 14.4079 22.4987 13.3771 25.1441C12.3793 27.703 11.7006 30.628 11.5078 34.9094C11.3159 39.2012 11.2656 40.5731 11.2656 51.5004C11.2656 62.4277 11.3139 63.7948 11.5086 68.0862C11.7058 72.3696 12.3837 75.2934 13.3779 77.8515C14.4063 80.4981 15.7811 82.7428 18.0182 84.979C20.254 87.2173 22.4987 88.5953 25.1433 89.6229C27.7034 90.6179 30.6276 91.2958 34.9102 91.4922C39.202 91.6873 40.5723 91.7352 51.4988 91.7352C62.4269 91.7352 63.794 91.6873 68.0854 91.4922C72.3688 91.2958 75.2958 90.6179 77.8559 89.6229C80.5013 88.5953 82.7428 87.2173 84.9782 84.979C87.2165 82.7428 88.5909 80.4981 89.6221 77.8527C90.611 75.2934 91.2902 72.3688 91.4914 68.087C91.6841 63.7956 91.7344 62.4277 91.7344 51.5004C91.7344 40.5731 91.6841 39.202 91.4914 34.9102C91.2902 30.6268 90.611 27.7034 89.6221 25.1453C88.5909 22.4987 87.2165 20.254 84.9782 18.0174C82.7404 15.7795 80.5021 14.4047 77.8535 13.3783C75.2886 12.3829 72.3631 11.7046 68.0798 11.5086C63.788 11.3135 62.4216 11.2656 51.4911 11.2656H51.5036ZM47.8942 18.5163C48.9656 18.5147 50.161 18.5163 51.5036 18.5163C62.2466 18.5163 63.5196 18.5549 67.7619 18.7476C71.6848 18.9271 73.814 19.5825 75.2322 20.1333C77.11 20.8623 78.4486 21.7342 79.856 23.1428C81.2642 24.551 82.1357 25.892 82.8667 27.7698C83.4175 29.186 84.0738 31.3152 84.2524 35.2381C84.4451 39.4796 84.487 40.7534 84.487 51.4911C84.487 62.2289 84.4451 63.5031 84.2524 67.7442C84.0729 71.6671 83.4175 73.7963 82.8667 75.2129C82.1377 77.0907 81.2642 78.4277 79.856 79.8351C78.4478 81.2433 77.1108 82.1147 75.2322 82.8442C73.8156 83.3974 71.6848 84.0512 67.7619 84.2307C63.5204 84.4234 62.2466 84.4652 51.5036 84.4652C40.7602 84.4652 39.4868 84.4234 35.2457 84.2307C31.3229 84.0496 29.1937 83.3942 27.7742 82.8434C25.8969 82.1139 24.5554 81.2425 23.1472 79.8343C21.739 78.426 20.8676 77.0883 20.1365 75.2097C19.5857 73.7931 18.9295 71.6639 18.7508 67.741C18.5581 63.4995 18.5195 62.2257 18.5195 51.4811C18.5195 40.7369 18.5581 39.4695 18.7508 35.228C18.9303 31.3052 19.5857 29.176 20.1365 27.7577C20.8659 25.88 21.739 24.5389 23.1476 23.1307C24.5558 21.7225 25.8969 20.8507 27.7746 20.12C29.1929 19.5668 31.3229 18.913 35.2457 18.7327C38.9573 18.5649 40.3957 18.5147 47.8942 18.5062V18.5163ZM72.9807 25.1968C70.3152 25.1968 68.1526 27.3574 68.1526 30.0233C68.1526 32.6888 70.3152 34.8514 72.9807 34.8514C75.6463 34.8514 77.8089 32.6888 77.8089 30.0233C77.8089 27.3578 75.6463 25.1952 72.9807 25.1952V25.1968ZM51.5036 30.838C40.0932 30.838 30.8417 40.0895 30.8417 51.5004C30.8417 62.9113 40.0932 72.1583 51.5036 72.1583C62.9145 72.1583 72.1628 62.9113 72.1628 51.5004C72.1628 40.0899 62.9137 30.838 51.5028 30.838H51.5036ZM51.5036 38.0887C58.9104 38.0887 64.9153 44.0929 64.9153 51.5004C64.9153 58.9071 58.9104 64.9121 51.5036 64.9121C44.0965 64.9121 38.0923 58.9071 38.0923 51.5004C38.0923 44.0929 44.0965 38.0887 51.5036 38.0887Z" fill="white"/>
</g>
<defs>
<radialGradient id="paint0_radial_45_191" cx="0" cy="0" r="1" gradientUnits="userSpaceOnUse" gradientTransform="translate(27.3594 110.933) rotate(-90) scale(102.081 94.9431)">
<stop stop-color="#FFDD55"/>
<stop offset="0.1" stop-color="#FFDD55"/>
<stop offset="0.5" stop-color="#FF543E"/>
<stop offset="1" stop-color="#C837AB"/>
</radialGradient>
<radialGradient id="paint1_radial_45_191" cx="0" cy="0" r="1" gradientUnits="userSpaceOnUse" gradientTransform="translate(-17.2529 7.41962) rotate(78.681) scale(45.6306 188.091)">
<stop stop-color="#3771C8"/>
<stop offset="0.128" stop-color="#3771C8"/>
<stop offset="1" stop-color="#6600FF" stop-opacity="0"/>
</radialGradient>
<clipPath id="clip0_45_191">
<rect width="103" height="103" fill="white"/>
</clipPath>
</defs>
</svg>
